<svg width="49" height="49" viewBox="0 0 49 49" fill="none" xmlns="http://www.w3.org/2000/svg">
<path d="M12.1469 6.40327C10.7657 6.7743 9.50631 7.50329 8.49522 8.51696C7.48414 9.53063 6.75702 10.7933 6.38694 12.178" stroke="#10C6EE" stroke-width="2" stroke-linecap="round"/>
<path d="M36.7279 6.40327C38.109 6.7743 39.3684 7.50329 40.3795 8.51696C41.3906 9.53063 42.1177 10.7933 42.4878 12.178" stroke="#10C6EE" stroke-width="2" stroke-linecap="round"/>
<path fill-rule="evenodd" clip-rule="evenodd" d="M24.4373 40.8334C33.4349 40.8334 40.7289 33.5207 40.7289 24.5001C40.7289 15.4794 33.4349 8.16675 24.4373 8.16675C15.4397 8.16675 8.14575 15.4794 8.14575 24.5001C8.14575 33.5207 15.4397 40.8334 24.4373 40.8334ZM25.4373 16.3334C25.4373 15.7811 24.9896 15.3334 24.4373 15.3334C23.8851 15.3334 23.4373 15.7811 23.4373 16.3334V24.2501C23.4373 24.9404 23.997 25.5001 24.6873 25.5001H30.5467C31.099 25.5001 31.5467 25.0524 31.5467 24.5001C31.5467 23.9478 31.099 23.5001 30.5467 23.5001H25.4373V16.3334Z" fill="#10C6EE"/>
</svg>
